<svg xmlns="http://www.w3.org/2000/svg" width="34" height="34" viewBox="0 0 34 34">
  <defs>
    <style>
      .cls-1 {
        fill: #fff;
      }
    </style>
  </defs>
  <g id="logo2" transform="translate(-196.938 -238.276)">
    <g id="组_2" data-name="组 2" transform="translate(209.1 250.396)">
      <g id="组_1" data-name="组 1" transform="translate(0 0)">
        <path id="路径_1" data-name="路径 1" class="cls-1" d="M306.471,340.93l.213-.128.128-.128.043-.128.085-.085,1.7.085-.085.256.128.128h.469l-.085,1.023-9.59-.043v-.98l.426-.043v-.341h1.79l.043.17.128.171.256.043Zm-4.9,1.577,4.9-.085v-.17l.085-.085h1.108l.043.256.341-.128h1.023l.085.085v.511l-.128.256-.128.256-.213.128-.3.128h-.6l-.128.085.043,3.282.341-.043v-2.728h1.108v2.984l-.085.384-.128.341-.171.17-.213.128-.341.085-.511.043.085.511h1.279l.085.085v1.151l-.085.085h-1.407l-.256-.085-.341-.043-.256-.213-.213-.3-.128-.341-.043-.511v-4.987l-.128-.085h-3.325l-.043.128v5.072l-.085.384-.128.341-.128.3-.256.213-.256.128-2.6-.085.043-1.151h1.748l.128-.085.085-.17v-1.449l-.085-.128h-.3l-.128.085V348.6h-1.236V346.13l.128-.128H301.4l.085-.085v-.3h-1.748l-.085-.128.085-2.984h1.236v1.79l.128.085h.3l.085-.085Zm1.62,7.459.043-5.925h2.685l.128.085v.9l-.128.128-.085.256.085.256.128.213v2.216l-.085.128-.17.128v.512l.17.128.085.128v.9l-.085.085h-2.643Zm1.748-4.22-.085-.639-.512.043v.469l.085.128Zm-.085,1.62.085-.128-.085-.511-.512.043v.469l.085.128Zm0,1.62-.043-.512h-.384l-.085.128v.3l.085.085Z" transform="translate(-299.481 -340.461)"/>
      </g>
    </g>
    <path id="路径_2" data-name="路径 2" class="cls-1" d="M213.938,238.276a17,17,0,1,0,17,17A17,17,0,0,0,213.938,238.276Zm0,32.946a15.946,15.946,0,1,1,15.946-15.946A15.946,15.946,0,0,1,213.938,271.222Z"/>
    <g id="组_4" data-name="组 4" transform="translate(199.099 240.442)">
      <g id="组_3" data-name="组 3" transform="translate(0 0)">
        <path id="路径_3" data-name="路径 3" class="cls-1" d="M229.633,277.215a17.4,17.4,0,0,0-6.435,1.022h-.066v-.066a23.078,23.078,0,0,0,0-13.6v-.066h.066a17.4,17.4,0,0,0,6.435,1.022v-8.99a14.839,14.839,0,0,0,0,29.668Z" transform="translate(-215.16 -256.537)"/>
        <path id="路径_4" data-name="路径 4" class="cls-1" d="M343.354,256.537v8.99a17.4,17.4,0,0,0,6.435-1.022h.066v.066a23.078,23.078,0,0,0,0,13.6v.066h-.066a17.4,17.4,0,0,0-6.435-1.022v8.99a14.839,14.839,0,0,0,0-29.668Z" transform="translate(-328.15 -256.537)"/>
      </g>
    </g>
  </g>
</svg>
