<?xml version="1.0" standalone="no"?><!DOCTYPE svg PUBLIC "-//W3C//DTD SVG 1.1//EN" "http://www.w3.org/Graphics/SVG/1.1/DTD/svg11.dtd"><svg t="1672813378581" class="icon" viewBox="0 0 1024 1024" version="1.1" xmlns="http://www.w3.org/2000/svg" p-id="5316" xmlns:xlink="http://www.w3.org/1999/xlink" width="200" height="200"><path d="M512 0C229.627709 0 0 229.627709 0 512S229.627709 1024 512 1024 1024 794.372291 1024 512 794.372291 0 512 0z m0 996.655196c-267.269721 0-484.655196-217.385475-484.655196-484.655196s217.385475-484.655196 484.655196-484.655196 484.655196 217.385475 484.655196 484.655196-217.385475 484.655196-484.655196 484.655196zM388.319106 698.150615H263.150838c25.056536-115.900782 127.227709-199.994637 248.849162-199.994637 38.099665 0 74.826369 8.237765 109.035978 24.370056 13.615196 6.407151 29.976313 0.68648 36.383463-13.043129 6.407151-13.615196 0.68648-29.861899-12.928715-36.383464-10.297207-4.919777-20.82324-9.153073-31.463687-12.814301 32.722235-28.374525 53.545475-70.135419 53.545475-116.701676 0-85.237989-69.334525-154.458101-154.458101-154.458101s-154.458101 69.334525-154.4581 154.458101c0 46.68067 20.82324 88.441564 53.659888 116.816089-111.896313 38.214078-195.07486 138.211397-207.088268 262.349944-0.68648 7.665698 1.830615 15.331397 6.979218 20.937654 5.148603 5.72067 12.471061 8.924246 20.251173 8.924246h157.089609c15.10257 0 27.344804-12.242235 27.344804-27.344805-0.228827-14.873743-12.471061-27.115978-27.573631-27.115977z m123.680894-454.22123c55.032849 0 99.882905 44.850056 99.882905 99.882906s-44.850056 99.882905-99.882905 99.882905c-55.032849 0-99.882905-44.850056-99.882905-99.882905s44.850056-99.882905 99.882905-99.882906z m201.367598 309.717095c-11.670168 9.496313-13.386369 26.772737-3.890056 38.442905 25.399777 31.120447 42.905028 67.389497 51.37162 106.175643H635.680894c-15.10257 0-27.344804 12.242235-27.344805 27.344804s12.242235 27.344804 27.344805 27.344805h157.089609c7.665698 0 14.988156-3.203575 20.251173-8.924246 5.148603-5.72067 7.665698-13.271955 6.979218-20.937654-5.835084-60.75352-29.404246-117.960223-68.075978-165.327374-9.72514-11.898994-26.887151-13.615196-38.557318-4.118883z m21.395307-70.364245c-10.640447-10.640447-27.916872-10.640447-38.557318 0L521.610726 657.762682l-60.753519-60.75352c-10.640447-10.640447-27.916872-10.640447-38.557319 0-10.640447 10.640447-10.640447 27.916872 0 38.557318l79.974972 79.974973c5.37743 5.37743 12.356648 8.008939 19.335866 8.008938 6.979218 0 13.958436-2.631508 19.335866-8.008938L734.762905 521.72514c10.75486-10.526034 10.75486-27.802458 0-38.442905z" fill="#ffffff" p-id="5317"></path></svg>