<?xml version="1.0" standalone="no"?><!DOCTYPE svg PUBLIC "-//W3C//DTD SVG 1.1//EN" "http://www.w3.org/Graphics/SVG/1.1/DTD/svg11.dtd"><svg t="1672737667797" class="icon" viewBox="0 0 1024 1024" version="1.1" xmlns="http://www.w3.org/2000/svg" p-id="6452" xmlns:xlink="http://www.w3.org/1999/xlink" width="200" height="200"><path d="M603.648 497.664c16.896 0 31.232 13.824 31.232 31.232 0 16.896-13.824 31.232-31.232 31.232H493.568v132.096c-0.512 16.896-14.848 30.72-32.256 30.208-16.384-0.512-29.184-13.824-30.208-30.208v-132.096H321.536c-16.896 0-31.232-13.824-31.232-31.232 0-16.896 13.824-31.232 31.232-31.232h109.568V442.368H321.536c-16.896-0.512-30.72-14.848-30.208-32.256 0.512-16.384 13.824-29.184 30.208-30.208h95.232L335.872 299.008c-12.288-11.776-13.312-31.232-1.024-43.52 11.776-12.288 31.232-13.312 43.52-1.024l1.024 1.024 83.968 83.968L547.84 253.952c11.776-11.776 31.744-11.776 43.52 0s11.776 31.744 0 43.52l-81.92 82.432h94.208c16.896-0.512 31.744 12.288 32.256 30.208 0.512 16.896-12.288 31.744-30.208 32.256H493.568v55.296h110.08z" fill="#ffffff" p-id="6453"></path><path d="M512 930.304c-231.936 0-420.352-188.416-420.352-420.352S280.064 89.088 512 89.088s420.352 188.416 420.352 420.352c0 17.92-14.336 32.256-32.256 32.256s-32.256-14.336-32.256-32.256c0-196.608-159.744-356.352-356.352-356.352S155.136 312.832 155.136 509.44s159.744 356.352 356.352 356.352c17.92 0 32.256 14.336 32.256 32.256s-13.824 32.256-31.744 32.256z" fill="#ffffff" p-id="6454"></path><path d="M747.52 599.04c80.896 0 146.944 66.048 146.944 146.944s-66.048 146.944-146.944 146.944-146.944-66.048-146.944-146.944S666.624 599.04 747.52 599.04m0-51.2c-109.568 0-198.144 88.576-198.144 198.144s88.576 198.144 198.144 198.144 198.144-88.576 198.144-198.144c0.512-109.568-88.576-198.144-198.144-198.144z" fill="#ffffff" p-id="6455"></path><path d="M687.616 852.992c-6.656 0-12.8-2.56-17.92-7.68-10.24-10.24-10.24-26.112 0-36.352l62.976-62.976v-105.472c0-14.336 11.264-25.6 25.6-25.6s25.6 11.264 25.6 25.6v115.712c0 7.168-2.56 13.824-7.68 18.432L705.536 844.8c-4.608 5.12-10.752 8.192-17.92 8.192z" fill="#ffffff" p-id="6456"></path></svg>